<svg id="Lag_1" data-name="Lag 1" xmlns="http://www.w3.org/2000/svg" viewBox="0 0 423.60639 112.97"><defs><style>.cls-1,.cls-3,.cls-4,.cls-5{fill:#fff;}.cls-2{fill:none;}.cls-2,.cls-3,.cls-4,.cls-5{stroke:#fff;stroke-miterlimit:10;}.cls-2,.cls-3{stroke-width:7.16px;}.cls-5{stroke-width:0.5px;}</style></defs><g id="Layer_2" data-name="Layer 2"><path class="cls-1" d="M736.91862,206.935v55.56h-10.32v-23.8h-28.73v23.8h-10.32v-55.56h10.32v22.94h28.73v-22.94Z" transform="translate(-530.16223 -204.345)"/><path class="cls-1" d="M785.33863,249.635h-25.24l-5.48,12.86h-10.64l25-55.56h10.22l25,55.56h-13Zm105.81,0h-25.24l-5.48,12.86h-10.64l25-55.56h10.16l25.08,55.56h-13Zm-109.11-8.09-9.08-19.56-9.37,19.56Zm106.11,0-9.09-19.56-9.37,19.56Z" transform="translate(-530.16223 -204.345)"/><path class="cls-1" d="M831.92863,242.885v19.61h-10.32v-19.45l-21.83-36.11h11l16.27,27.06,16.43-27.06h10.16Z" transform="translate(-530.16223 -204.345)"/><path class="cls-1" d="M925.03861,215.695h-18.42v-8.73h47.15v8.73h-18.41v46.8h-10.32Z" transform="translate(-530.16223 -204.345)"/><path class="cls-1" d="M709.76862,291.695c0,7-4.95,11.08-13.22,11.08h-9.94v11.17h-1.61v-33.25h11.55C704.81861,280.695,709.76862,284.785,709.76862,291.695Zm-1.57,0c0-6.08-4.09-9.56-11.55-9.56h-10v19.17h10C704.10862,301.335,708.19862,297.855,708.19862,291.695Z" transform="translate(-530.16223 -204.345)"/><path class="cls-1" d="M720.75861,280.695h1.61v31.81h19.5v1.47h-21.11Z" transform="translate(-530.16223 -204.345)"/><path class="cls-1" d="M771.24861,304.235h-19.92l-4.47,9.74h-1.76l15.41-33.28h1.57l15.4,33.28h-1.76Zm-.62-1.38-9.31-20.31-9.37,20.31Z" transform="translate(-530.16223 -204.345)"/><path class="cls-1" d="M795.88862,297.005l-7.94,8.18v8.79h-1.62v-33.28h1.62v22.4l21.77-22.4h2l-14.74,15.22,15.79,18.06h-2Z" transform="translate(-530.16223 -204.345)"/><path class="cls-1" d="M841.00861,304.235h-19.92l-4.47,9.74h-1.76l15.41-33.28h1.57l15.36,33.28h-1.76Zm-.62-1.38-9.31-20.31-9.37,20.31Z" transform="translate(-530.16223 -204.345)"/><path class="cls-1" d="M860.74861,282.165h-12.22v-1.47h26v1.47h-12.21v31.81h-1.57Z" transform="translate(-530.16223 -204.345)"/><path class="cls-1" d="M905.67863,312.505v1.47h-22.48v-33.28h21.83v1.47h-20.22v14.17h18.07v1.48h-18.07v14.69Z" transform="translate(-530.16223 -204.345)"/><path class="cls-1" d="M940.72862,313.975l-8.23-11.46a21.37838,21.37838,0,0,1-3.61.29h-9.94v11.17h-1.61v-33.28h11.55c8.27,0,13.22,4.09,13.22,11,0,5.37-2.9,9-8,10.41l8.51,11.84Zm-11.74-12.64c7.46,0,11.55-3.48,11.55-9.61s-4.09-9.56-11.55-9.56h-10v19.17Z" transform="translate(-530.16223 -204.345)"/><path class="cls-2" d="M578.75861,227.315c-24.82,10.88-44.78,26.65-41.78,50.87,6.88,55.75,115.39,41.61,114.65-40.68v75.44l-121.43.75" transform="translate(-530.16223 -204.345)"/><path class="cls-3" d="M553.89862,232.315a63.62024,63.62024,0,0,0-17.26,4.87v-29.26h115.73v4.26s-55.24,7-73.61,15.13C572.95862,229.885,553.89862,232.315,553.89862,232.315Z" transform="translate(-530.16223 -204.345)"/><polygon class="cls-4" points="119.906 106.37 71.576 106.37 103.346 87.44 119.126 61.34 119.906 106.37"/><polygon class="cls-5" points="124.846 112.72 4.446 112.72 0.036 112.72 124.846 94.36 124.846 112.72"/></g></svg>