<svg id="visual" viewBox="0 0 960 540" width="960" height="540" xmlns="http://www.w3.org/2000/svg" xmlns:xlink="http://www.w3.org/1999/xlink" version="1.1"><path d="M0 442L16 449.8C32 457.7 64 473.3 96 472.3C128 471.3 160 453.7 192 448.5C224 443.3 256 450.7 288 459.2C320 467.7 352 477.3 384 479.7C416 482 448 477 480 467.2C512 457.3 544 442.7 576 435.3C608 428 640 428 672 436.7C704 445.3 736 462.7 768 462.3C800 462 832 444 864 443.3C896 442.7 928 459.3 944 467.7L960 476L960 541L944 541C928 541 896 541 864 541C832 541 800 541 768 541C736 541 704 541 672 541C640 541 608 541 576 541C544 541 512 541 480 541C448 541 416 541 384 541C352 541 320 541 288 541C256 541 224 541 192 541C160 541 128 541 96 541C64 541 32 541 16 541L0 541Z" fill="#050f1a" stroke-linecap="round" stroke-linejoin="miter"></path></svg>