<?xml version="1.0" standalone="no"?>
<!DOCTYPE svg PUBLIC "-//W3C//DTD SVG 20010904//EN"
 "http://www.w3.org/TR/2001/REC-SVG-20010904/DTD/svg10.dtd">
<svg version="1.0" xmlns="http://www.w3.org/2000/svg"
 width="924.000000pt" height="924.000000pt" viewBox="0 0 924.000000 924.000000"
 preserveAspectRatio="xMidYMid meet">
<metadata>
Created by potrace 1.14, written by Peter Selinger 2001-2017
</metadata>
<g transform="translate(0.000000,924.000000) scale(0.100000,-0.100000)"
fill="#000000" stroke="none">
<path d="M7590 8149 c-541 -15 -2896 -41 -5265 -59 -770 -6 -1415 -13 -1433
-16 -66 -10 -65 0 -53 -516 6 -255 11 -811 11 -1235 0 -425 2 -773 5 -773 3 0
36 15 74 34 340 172 744 329 1059 412 124 33 169 37 160 15 -2 -4 -84 -77
-183 -161 -419 -356 -629 -609 -804 -964 -193 -392 -273 -708 -274 -1076 0
-390 102 -820 278 -1171 143 -287 300 -483 582 -732 l105 -92 -499 -5 -498 -5
0 -302 c0 -301 0 -303 23 -325 18 -19 31 -22 70 -20 26 2 760 3 1632 2 1413
-1 2286 -6 4879 -27 l734 -6 -6 429 c-4 236 -12 731 -18 1099 -6 369 -14 1237
-19 1930 -5 693 -12 1277 -16 1298 l-6 37 -312 -2 -311 -3 -3 -45 c-5 -90 -74
-729 -93 -870 -77 -561 -192 -860 -535 -1383 -187 -285 -296 -419 -503 -619
-212 -206 -441 -379 -728 -553 -449 -272 -891 -425 -1433 -497 -226 -31 -789
-33 -970 -5 -321 50 -619 164 -895 342 -297 191 -498 406 -625 670 -258 533
-260 1067 -6 1590 177 365 380 596 801 913 374 280 781 519 1156 677 324 137
1083 367 2109 639 729 192 952 246 1770 427 272 60 510 116 527 124 20 9 35
24 39 40 7 29 -14 729 -22 758 -12 40 -16 40 -504 26z"/>
</g>
</svg>
